<?xml version="1.0" encoding="utf-8"?>
<!-- Generator: Adobe Illustrator 25.4.8, SVG Export Plug-In . SVG Version: 6.00 Build 0)  -->
<svg version="1.1" id="Layer_1" xmlns="http://www.w3.org/2000/svg" xmlns:xlink="http://www.w3.org/1999/xlink" x="0px" y="0px"
	 viewBox="0 0 1088.7 1072.4" style="enable-background:new 0 0 1088.7 1072.4;" xml:space="preserve" width="64" height="64">
<style type="text/css">
	.st0{fill:#9F3443;}
	.st1{fill:#DF9F50;}
	.st2{fill-rule:evenodd;clip-rule:evenodd;fill:#E0A04F;}
</style>
<g>
	<path class="st0" d="M614.9,1046.5c-38.9,0-76.7-9.1-109.3-26.2c-52.2-24.8-92-79.4-110.4-108.3c-60.9-6.9-123.2-14.9-178.6-37
		C147.4,847.4,97.8,801.1,65,733.6C38.4,679.1,33.6,616,50.3,540.9c12.2-54.6,33.8-107.4,54.5-155.1c-25.2-12.1-45.1-29.9-58.5-52.6
		C29.8,305.2,23.6,271,28.2,234c5.6-45,27.2-90.8,59.1-125.6c35.7-39,80.8-60.4,126.7-60.4c36.1,0,71.2,12.8,104.3,38
		c10.8,6.7,24.4,16.2,41.3,28.9l5.5-2.7C421.9,80.7,489.3,64.1,560,64.1c69.1,0,135.5,15.8,192,45.8c11.6,5,21.8,10.6,30,15.4
		c3.2-3.3,6.7-7.4,10.4-12.4c37.7-55.3,84.8-85.8,132.7-85.8c31.9,0,61.1,13.4,84.5,38.9c22,24,37.9,58.2,45.9,99.1
		c8.2,38.1-0.5,74.2-26,107.2c-14.8,19.1-33.3,34.9-51.6,48.3c1.6,3.2,3.2,6.3,4.8,9.4c40.4,80.1,82.3,162.9,79.3,260.4
		c2.7,54.3,1.4,124.5-31.2,187.8c-17.5,34.1-42.8,63.3-75,86.9c-32.4,23.7-72.8,42.4-120.2,55.6c-19,36.1-48.8,66.8-86.9,89.2
		C708.7,1033.6,661.2,1046.5,614.9,1046.5z"/>
	<path class="st1" d="M925.1,56.7c46.5,0,87,40.1,101.5,114.5C1041,237.3,986.4,280.4,940,311c43.2,87.8,95.9,176.6,92.3,279.9
		c5.6,109.8-7.4,252.6-217.5,304.9C781.7,971.2,698,1017,614.9,1017c-33.3,0-66.4-7.3-96.1-23.1c-43.4-20.4-82.9-69.8-105.9-109.6
		c-129.6-14.5-255.5-28-321.4-163.6c-54.9-112.3,7.7-248.2,52.8-352C-21.8,326.4,73.1,77.4,214,77.4c27.9,0,57.7,9.8,87.5,32.9
		c10.4,6.3,26.8,17.6,54.8,39.2l22.5-11.3c53.8-29.9,117.5-44.7,181.1-44.7c63,0,126,14.5,179.2,42.9c25.9,11.1,44.4,25.2,44.4,25.2
		s15.8-8.2,32.9-31.9C850.3,80.2,889.5,56.7,925.1,56.7 M925.1-2.3C925.1-2.3,925.1-2.3,925.1-2.3l0,11.8l0,47.2L925.1-2.3
		c-29.5,0-59.7,9.6-87.3,27.6c-23.1,15.1-44.5,36.1-63.6,62.3c-3-1.5-6.1-2.9-9.3-4.3c-30.1-15.9-63.1-28.1-98-36.4
		c-34.7-8.2-70.6-12.4-106.9-12.4c-36.8,0-73.2,4.3-108.2,12.8c-31.7,7.7-61.8,18.7-89.5,32.9c-10.4-7.5-19.5-13.7-27.3-18.6
		c-18.5-13.9-37.9-24.7-57.8-31.9c-20.7-7.5-41.9-11.3-63.2-11.3c-54.4,0-107.1,24.9-148.5,70c-36,39.2-60.3,90.9-66.6,141.9
		c-5.5,43.5,2.1,84.3,22,117.8c11.8,19.9,27.5,36.7,46.5,49.9c-17.8,42.5-35.2,88.4-45.9,136.4c-8.4,37.5-11.7,71.6-10,104.2
		c1.9,38.8,11,75.1,27,107.9c18.9,38.9,43.5,72.1,73.2,98.5c26.9,24,57.6,42.7,94,57.2c54.7,21.8,114,30.5,172.4,37.3
		c9.7,14.3,21.9,30.4,36.6,46.5c25.1,27.4,51.2,47.8,77.7,60.5c36.7,19.2,79,29.3,122.5,29.3c25.9,0,51.8-3.5,77.2-10.4
		c25.2-6.9,49.3-17,71.5-30.1c38.9-22.9,70.1-53.5,91.7-89.7c45.8-13.9,85.3-32.9,117.8-56.7c36-26.3,64.2-59.1,83.8-97.2
		c35.6-69.1,37.2-143.7,34.4-201.6c1.3-47.3-7.1-95.7-25.6-147.8c-14.2-39.9-32.5-77.3-50.7-113.5c13.4-11.2,26.5-24.1,37.7-38.6
		c14.1-18.3,24.1-37.9,29.7-58.1c6.5-23.7,7.2-48.2,1.8-73.1c-4.4-22.6-11-43.5-19.6-62.1c-9-19.6-20.3-36.7-33.4-51.1
		c-14.1-15.3-30.2-27.2-47.8-35.5C965,2,945.4-2.3,925.1-2.3L925.1-2.3L925.1-2.3z"/>
</g>
<path class="st2" d="M812.2,798c-45.3-58.1-234.4-75.8-395.8,4.9c25.5,162.1,215.8,257.6,337,131.5C788.7,888.9,812.9,856,812.2,798
	z M584,909.7c5.7-63.5,137.3-73,147.7-8.1C729.7,968.1,587.8,978.7,584,909.7z"/>
<path class="st2" d="M842,530.3c-13.6-66-85-56.6-120.9-14.7c-38.1,42.6-60.1,117.6-42.4,172.5c33,74.4,129.5,36.9,153.8-25.1
	C849.9,628.3,849.8,567.7,842,530.3z M771.1,702.8c-29.5,18.2-75.8-3-68.4-41.3c-1-39.6,110.6-87.2,118-35.8
	C815.2,654.8,796.8,686.9,771.1,702.8z M708.8,578.5c18.9-27,49.3-48.1,84-47.9c27.8,3,32.3,5,36.9,41.5
	C829.6,572.1,792.4,528.9,708.8,578.5z"/>
<path class="st2" d="M752.2,626.7c-4.8-1-39.2,18.4-35.5,25.1c1.8,11.3,9.6-0.5,23.1-4.6C757.9,639.4,762.4,633.7,752.2,626.7z"/>
<path class="st2" d="M505,621.8c-9.6,0.2-28.7,30.2-22.5,39.2C487.6,660.7,519.9,626.2,505,621.8z"/>
<path class="st2" d="M619.3,569.3c-55.2-194-266.5-102.3-207.7,76.5C477,814.2,656.6,730.5,619.3,569.3z M602.3,620.3
	c-5.9,76.3-80.2,130.2-142.8,64.3c10.7-45.8,38.6-110.2,94.3-85.1c9.9,3.4,34.5,27.3,41.8,31.7c2.5-10.2,2.8-46.9-11.8-51.9
	c-24.3-18.5-116.8-54.5-152.3,41.8c-2,5.5-2.3,5.2-4.3-1.4c-12.3-32.4,25.8-65.7,51.4-79.6c35.9-18.5,84.4-2.5,114,20.8
	C601.4,572.3,603.9,605,602.3,620.3z"/>
<path class="st2" d="M175.2,319.1c-47.4-1.5-65.5-52.2-57.1-92.6c3.4-9.9-5.6-15.7-9.5-2.9c-3.5,14.6-4.1,59.9,8.4,70.1
	C131.2,329.4,199.5,335.9,175.2,319.1z"/>
<path class="st2" d="M241,223.9c-12.1-4.5-49.4-29.7-37.8-0.3c12.3,21.5-14.7,52.3-0.6,72.1c4.4,2.3,49.8-60.8,48.5-63.5
	C251.1,230.3,246.5,226.5,241,223.9z"/>
<path class="st2" d="M999.5,181.2c-15.2-29.7-0.6,59.4-74.2,81.9c-11.6,5.5-20.8,2.7-18.7,11.8c21.8,11.5,72.5-32.2,82.2-53.4
	C994.5,213.2,1000.4,189.7,999.5,181.2z"/>
<path class="st2" d="M275.9,168.8c-34-32-105.2-63.3-130.4-9.2c1.3,9.7,16.2,13.4,18.8,2.6c26.7-25.9,63.2-6.5,89.4,15.3
	c13.4,8.1,25.7,29.2,34.9,21.1C299.2,187.3,288.9,182.6,275.9,168.8z"/>
<path class="st2" d="M928.2,230.8c9.8-10.7,17.6-20.2,17.3-21.6c-2.7-4.9-21.8-11.1-28-10.4c-13-0.7-39.9,13.1-48.5,21.9
	C880.2,245.8,904,266.6,928.2,230.8z"/>
<path class="st2" d="M915.9,130c5.3-2.3,11-3.8,16.8-4.5c6.5-0.8,10.1,3,16,4.2c3.4,0.7,7.1,1.3,10.5,0.5c4.4-1,6.6-4.4,4.9-8.7
	c-2.2-5.6-8.4-9.3-13.7-11.5c-9.1-3.7-19.4-3.8-28.9-1.9c-6.2,1.2-12.2,3.3-17.9,5.9c-26.9,15.5-58.5,53.9-63.2,85.1
	c-0.2,1.2,3.3,4.1,4.3,4.7c1.4,0.8,3,1.1,4.6,0.7c4.2-1,7.3-5.3,9.7-8.5c4.1-5.5,7.6-11.4,11.1-17.2c4-6.5,7.7-14.5,13.1-20
	c3.3-3.4,5.7-7.4,8.7-11.1c3.4-4,7.2-7.6,11.4-10.6C907.4,134.2,911.5,131.9,915.9,130z"/>
</svg>
